#!OML:ASF H:\Terrain\Patient Classification 1\Takeo\Monday\TakeoMonday.ASF
:FULLY-SPECIFIED
:DEGREES
17
root 10.2264 16.5416 -27.0655 -2.77736 -9.12624 -0.553813
lowerback 5.52656 1.58751 2.51064
upperback 3.14013 2.22525 0.700521
thorax 0.202112 1.13634 -0.802328
lowerneck -12.3924 3.7559 -0.866388
upperneck -2.76906 5.11421 -1.48244
head 1.22307 2.52197 -0.0780849
rclavicle 2.65874e-015 7.55382e-015
rhumerus -13.2385 10.6611 -86.1583
rradius 36.7545
rwrist -13.5562
rhand -26.3999 19.2757
rfingers 7.12502
rthumb 0.159486 -10.704
lclavicle 2.65874e-015 7.55382e-015
lhumerus -47.105 33.804 66.397
lradius 18.1811
lwrist 7.86003
lhand -20.93 22.0764
lfingers 7.12502
lthumb 5.4419 51.9865
rfemur 14.5209 1.64198 25.3496
rtibia 33.6611
rfoot -4.81812 4.5746
rtoes -25.3536
lfemur -26.5916 -0.534902 -25.247
ltibia 35.9695
lfoot -9.00507 11.7654
ltoes 5.58897
18
root 10.2174 16.5687 -26.8842 -2.65485 -9.1461 -0.674536
lowerback 5.33207 1.55657 2.70627
upperback 3.08843 2.18747 0.597589
thorax 0.267656 1.12123 -1.00999
lowerneck -12.1311 3.78641 -0.909975
upperneck -3.34553 5.14568 -1.27167
head 0.98306 2.54944 -0.0181747
rclavicle -3.04141e-014 2.5842e-015
rhumerus -13.7447 10.5135 -86.7087
rradius 35.9162
rwrist -13.6948
rhand -26.4741 19.2271
rfingers 7.12502
rthumb 0.0878886 -10.7526
lclavicle -3.04141e-014 2.5842e-015
lhumerus -46.1765 33.1278 67.2041
lradius 18.4271
lwrist 8.60134
lhand -20.9189 22.295
lfingers 7.12502
lthumb 5.45264 52.2048
rfemur 13.1363 1.7222 25.1718
rtibia 36.322
rfoot -2.03097 4.96652
rtoes -25.3019
lfemur -26.3208 -0.471223 -25.2333
ltibia 36.5153
lfoot -9.23423 11.6437
ltoes 5.95827
19
root 10.2116 16.595 -26.7066 -2.64375 -9.47236 -0.906176
lowerback 5.35971 1.59829 2.95251
upperback 2.99441 2.25698 0.626842
thorax 0.167076 1.15653 -1.12354
lowerneck -11.873 3.78317 -1.18256
upperneck -3.63994 5.1669 -0.996609
head 0.828896 2.57184 0.102144
rclavicle 2.08475e-014 1.11319e-014
rhumerus -14.1527 10.6689 -87.0533
rradius 34.7797
rwrist -13.9105
rhand -26.5787 19.2819
rfingers 7.12502
rthumb -0.0132171 -10.6978
lclavicle 2.08475e-014 1.11319e-014
lhumerus -45.5274 32.7665 67.7481
lradius 18.5376
lwrist 8.61715
lhand -20.7085 22.3064
lfingers 7.12502
lthumb 5.6558 52.211
rfemur 11.8255 2.18092 25.1794
rtibia 39.0073
rfoot 0.970365 5.24151
rtoes -26.2188
lfemur -25.8179 -0.188503 -25.0714
ltibia 36.8614
lfoot -9.48037 11.4488
ltoes 6.7712
20
root 10.2079 16.6059 -26.532 -2.76211 -9.71522 -0.831247
lowerback 5.50538 1.66041 2.93481
upperback 2.90156 2.34591 0.562099
thorax -0.00381363 1.19807 -1.19127
lowerneck -11.6598 3.77938 -1.05344
upperneck -3.71046 5.1424 -1.06767
head 0.775655 2.55822 0.0521623
rclavicle -1.16786e-014 -4.57205e-015
rhumerus -14.5919 10.3516 -87.3364
rradius 33.5697
rwrist -13.6888
rhand -26.4409 19.1413
rfingers 7.12502
rthumb 0.119896 -10.8384
lclavicle -1.16786e-014 -4.57205e-015
lhumerus -44.7917 32.4641 68.2811
lradius 18.5555
lwrist 8.21876
lhand -20.6797 22.267
lfingers 7.12502
lthumb 5.68363 52.1708
rfemur 10.5421 2.73802 24.9329
rtibia 41.7647
rfoot 4.00122 5.37432
rtoes -28.8772
lfemur -25.0736 -0.212494 -25.2099
ltibia 36.9829
lfoot -10.1491 11.4734
ltoes 8.24508
21
root 10.2053 16.6108 -26.3646 -2.87346 -9.75401 -0.483466
lowerback 5.52006 1.67179 2.7017
upperback 2.95522 2.34853 0.385611
thorax 0.0409631 1.19935 -1.24158
lowerneck -11.8208 3.80164 -0.714414
upperneck -3.6633 5.13316 -1.37352
head 0.835843 2.54306 -0.0937211
rclavicle 1.02374e-014 -1.19271e-015
rhumerus -15.1582 10.4121 -87.5933
rradius 32.917
rwrist -13.6668
rhand -25.7393 18.5255
rfingers 7.12502
rthumb 0.79752 -11.4528
lclavicle 1.02374e-014 -1.19271e-015
lhumerus -43.4994 31.796 69.4447
lradius 18.776
lwrist 8.89272
lhand -21.1838 22.4007
lfingers 7.12502
lthumb 5.19684 52.317
rfemur 9.16722 3.17685 24.3989
rtibia 44.5987
rfoot 6.86027 5.32986
rtoes -31.3544
lfemur -24.2638 -0.506674 -25.6603
ltibia 36.9165
lfoot -11.1636 11.7608
ltoes 8.18009
22
root 10.2009 16.6294 -26.2013 -2.98547 -9.89509 -0.18855
lowerback 5.64796 1.68973 2.39825
upperback 2.96474 2.3611 0.312339
thorax -0.0296161 1.20204 -1.15216
lowerneck -12.0539 3.7714 -0.585206
upperneck -3.42828 5.0834 -1.61344
head 0.961871 2.50871 -0.182978
rclavicle 7.20594e-015 -4.37326e-015
rhumerus -15.6491 10.39 -87.7576
rradius 31.9656
rwrist -13.1947
rhand -24.7677 18.4469
rfingers 7.12502
rthumb 1.73595 -11.5258
lclavicle 7.20594e-015 -4.37326e-015
lhumerus -42.3989 31.0818 70.6477
lradius 19.181
lwrist 9.80618
lhand -21.6407 22.5656
lfingers 7.12502
lthumb 4.75576 52.4922
rfemur 7.66378 3.56329 23.8797
rtibia 47.4777
rfoot 9.76937 5.04672
rtoes -32.2426
lfemur -23.4027 -0.425521 -26.073
ltibia 36.6925
lfoot -11.8866 11.6926
ltoes 7.3666
23
root 10.1959 16.6544 -26.0379 -3.06559 -9.97429 0.0240451
lowerback 5.80185 1.66057 2.12962
upperback 2.90409 2.31406 0.308223
thorax -0.19028 1.17349 -1.01045
lowerneck -12.1524 3.75947 -0.612919
upperneck -3.47945 5.07136 -1.74081
head 0.964977 2.49992 -0.217
rclavicle 1.46604e-015 6.95746e-015
rhumerus -15.897 9.86339 -87.9284
rradius 30.4552
rwrist -12.1604
rhand -24.2888 18.7827
rfingers 7.12502
rthumb 2.19843 -11.1857
lclavicle 1.46604e-015 6.95746e-015
lhumerus -41.5506 30.3415 71.7691
lradius 19.7322
lwrist 10.533
lhand -21.8358 22.5209
lfingers 7.12502
lthumb 4.56734 52.4517
rfemur 6.06439 3.82906 23.444
rtibia 50.3529
rfoot 12.4521 4.39519
rtoes -32.747
lfemur -22.5252 -0.312266 -26.399
ltibia 36.3381
lfoot -12.2452 11.4164
ltoes 7.85444
24
root 10.191 16.6758 -25.8812 -3.12009 -9.85684 0.424268
lowerback 5.86355 1.54267 1.71906
upperback 2.87436 2.13754 0.228151
thorax -0.273565 1.08091 -0.855804
lowerneck -12.1357 3.88825 -0.701862
upperneck -3.82207 5.24692 -1.83706
head 0.852133 2.58966 -0.229438
rclavicle 5.61567e-015 2.5842e-015
rhumerus -16.1283 9.28047 -88.1629
rradius 29.1965
rwrist -11.1125
rhand -23.9589 18.823
rfingers 7.12502
rthumb 2.51702 -11.1419
lclavicle 5.61567e-015 2.5842e-015
lhumerus -40.6642 29.7012 72.7805
lradius 20.2411
lwrist 11.1396
lhand -21.5526 21.8344
lfingers 7.12502
lthumb 4.84079 51.7591
rfemur 4.42558 4.03313 22.8688
rtibia 53.2019
rfoot 14.456 3.25013
rtoes -33.8301
lfemur -21.7124 -0.382305 -26.9344
ltibia 35.9175
lfoot -12.5158 11.313
ltoes 8.38674
25
root 10.1836 16.693 -25.7312 -3.27414 -9.67182 1.29586
lowerback 6.00092 1.4254 0.857163
upperback 2.84556 1.93645 -0.0269578
thorax -0.405531 0.973316 -0.628076
lowerneck -11.8151 4.06863 -0.675089
upperneck -4.14643 5.47376 -2.04131
head 0.701715 2.70401 -0.298635
rclavicle -2.15681e-014 3.77691e-015
rhumerus -16.5241 8.5869 -88.3951
rradius 28.2981
rwrist -10.0436
rhand -22.9397 19.3162
rfingers 7.12502
rthumb 3.50134 -10.6348
lclavicle -2.15681e-014 3.77691e-015
lhumerus -39.6537 28.5102 73.9517
lradius 20.8096
lwrist 12.2555
lhand -21.2693 21.2352
lfingers 7.12502
lthumb 5.11429 51.1535
rfemur 2.7889 4.25044 21.8315
rtibia 56.0081
rfoot 15.3701 1.42992
rtoes -34.0435
lfemur -20.9134 -0.392911 -27.9778
ltibia 35.514
lfoot -12.8177 11.2125
ltoes 8.59077
26
root 10.1755 16.7062 -25.5801 -3.50789 -9.55608 1.96007
lowerback 6.13681 1.35635 0.171234
upperback 2.93884 1.80599 -0.208612
thorax -0.402839 0.903325 -0.424554
lowerneck -11.7821 4.1557 -0.461975
upperneck -4.20458 5.56175 -2.44725
head 0.697939 2.73897 -0.456327
rclavicle 1.20265e-014 -5.96354e-016
rhumerus -16.8583 7.96362 -88.4781
rradius 27.4729
rwrist -8.96968
rhand -21.8569 19.3574
rfingers 7.12502
rthumb 4.54694 -10.5738
lclavicle 1.20265e-014 -5.96354e-016
lhumerus -38.3949 26.6564 75.6308
lradius 21.6024
lwrist 14.3147
lhand -22.1556 20.5546
lfingers 7.12502
lthumb 4.25855 50.4918
rfemur 1.24403 4.36926 20.9999
rtibia 58.6577
rfoot 15.2925 -0.888256
rtoes -31.9282
lfemur -19.9924 -0.409026 -28.7856
ltibia 35.1374
lfoot -13.128 11.1528
ltoes 8.39805
27
root 10.167 16.72 -25.4265 -3.59078 -9.52366 1.95526
lowerback 6.13958 1.32708 0.126083
upperback 3.07221 1.76461 -0.18048
thorax -0.269839 0.882313 -0.365774
lowerneck -12.1591 4.19364 -0.445049
upperneck -3.94886 5.61926 -2.53958
head 0.847841 2.75994 -0.473727
rclavicle 1.83876e-015 -4.96962e-015
rhumerus -17.0793 7.49798 -88.451
rradius 26.7054
rwrist -8.21149
rhand -21.2513 18.2329
rfingers 7.12502
rthumb 5.13171 -11.685
lclavicle 1.83876e-015 -4.96962e-015
lhumerus -37.1529 25.1476 77.0963
lradius 22.3418
lwrist 15.6283
lhand -22.9473 19.7706
lfingers 7.12502
lthumb 3.49396 49.7217
rfemur -0.336515 4.39736 20.9068
rtibia 61.0581
rfoot 14.836 -2.86159
rtoes -30.0059
lfemur -19.1309 -0.378735 -28.8507
ltibia 34.7486
lfoot -13.3144 11.067
ltoes 8.06739
28
root 10.1591 16.7399 -25.271 -3.55415 -9.22929 1.95711
lowerback 6.07036 1.22885 0.0788909
upperback 3.10939 1.63177 -0.160043
thorax -0.196092 0.815464 -0.307946
lowerneck -12.3619 4.21382 -0.668988
upperneck -3.75195 5.68025 -2.29963
head 0.931012 2.79386 -0.35283
rclavicle 1.28216e-014 -1.05356e-014
rhumerus -17.422 6.87938 -88.4155
rradius 26.1118
rwrist -7.71557
rhand -20.517 17.3705
rfingers 7.12502
rthumb 5.84067 -12.529
lclavicle 1.28216e-014 -1.05356e-014
lhumerus -36.1102 24.2789 78.0134
lradius 22.8929
lwrist 15.7324
lhand -22.6968 19.6203
lfingers 7.12502
lthumb 3.7359 49.5674
rfemur -1.96718 4.23943 20.836
rtibia 63.2027
rfoot 13.95 -4.53643
rtoes -28.9311
lfemur -18.3886 -0.585167 -28.9383
ltibia 34.366
lfoot -13.6006 10.8912
ltoes 8.13226
29
root 10.1524 16.7688 -25.1155 -3.63399 -8.85992 2.24419
lowerback 6.05477 1.0978 -0.289542
upperback 3.17552 1.43818 -0.17692
thorax -0.129164 0.714818 -0.105942
lowerneck -12.3898 4.19134 -1.02064
upperneck -3.8459 5.69343 -2.1193
head 0.888211 2.80881 -0.239548
rclavicle 1.33186e-014 -3.97569e-016
rhumerus -17.8831 6.0822 -88.3206
rradius 25.5756
rwrist -6.96904
rhand -19.8958 17.5459
rfingers 7.12502
rthumb 6.44037 -12.3362
lclavicle 1.33186e-014 -3.97569e-016
lhumerus -35.1371 23.2344 79.1103
lradius 23.6276
lwrist 16.3772
lhand -23.1086 19.7051
lfingers 7.12502
lthumb 3.33827 49.6587
rfemur -3.47355 4.0613 20.451
rtibia 65.0947
rfoot 12.5519 -6.32922
rtoes -26.9925
lfemur -17.5266 -0.747072 -29.3503
ltibia 34.0141
lfoot -14.1513 10.5942
ltoes 8.4844
30
root 10.1456 16.7963 -24.9598 -3.77834 -8.78159 2.43781
lowerback 6.12439 1.06112 -0.571197
upperback 3.2434 1.37443 -0.147449
thorax -0.105168 0.679324 0.0853386
lowerneck -12.2315 4.16097 -1.05116
upperneck -4.20207 5.64728 -2.37249
head 0.753631 2.7867 -0.323498
rclavicle 1.44119e-014 1.19271e-015
rhumerus -18.407 5.21447 -88.1658
rradius 24.9823
rwrist -6.12356
rhand -19.5378 18.0005
rfingers 7.12502
rthumb 6.78597 -11.8708
lclavicle 1.44119e-014 1.19271e-015
lhumerus -34.2931 21.6521 80.3915
lradius 24.7908
lwrist 17.5213
lhand -23.4771 20.7757
lfingers 7.12502
lthumb 2.98231 50.7346
rfemur -4.87486 4.16769 20.1579
rtibia 66.7582
rfoot 10.8353 -8.07272
rtoes -24.0768
lfemur -16.5848 -0.526746 -29.6479
ltibia 33.6404
lfoot -14.5666 10.358
ltoes 8.42831
